<svg width="64" height="64" viewBox="0 0 64 64" fill="none" xmlns="http://www.w3.org/2000/svg">
<path d="M32.0092 64.0002C49.5668 64.0002 63.8 49.767 63.8 32.2093C63.8 14.6517 49.5668 0.418457 32.0092 0.418457C14.4515 0.418457 0.218262 14.6517 0.218262 32.2093C0.218262 49.767 14.4515 64.0002 32.0092 64.0002Z" fill="#00EAD9"/>
<path d="M32.0093 60.939C47.8764 60.939 60.7393 48.0761 60.7393 32.209C60.7393 16.3419 47.8764 3.479 32.0093 3.479C16.1422 3.479 3.2793 16.3419 3.2793 32.209C3.2793 48.0761 16.1422 60.939 32.0093 60.939Z" fill="url(#paint0_linear_385_222)"/>
<path d="M32.3913 56.6356C46.1227 56.6356 57.2542 45.5041 57.2542 31.7726C57.2542 18.0412 46.1227 6.90967 32.3913 6.90967C18.6598 6.90967 7.52832 18.0412 7.52832 31.7726C7.52832 45.5041 18.6598 56.6356 32.3913 56.6356Z" fill="#006262"/>
<path d="M32.391 46.1741C36.957 46.1741 40.6584 42.4726 40.6584 37.9066C40.6584 33.3406 36.957 29.6392 32.391 29.6392C27.825 29.6392 24.1235 33.3406 24.1235 37.9066C24.1235 42.4726 27.825 46.1741 32.391 46.1741Z" fill="#006262"/>
<path d="M36.155 44.3013H27.8391C27.5847 44.3013 27.3784 44.5075 27.3784 44.7619V45.1438C27.3784 45.3982 27.5847 45.6044 27.8391 45.6044H36.155C36.4094 45.6044 36.6157 45.3982 36.6157 45.1438V44.7619C36.6157 44.5075 36.4094 44.3013 36.155 44.3013Z" fill="white"/>
<path d="M35.9369 46.3257H28.0695C27.8151 46.3257 27.6089 46.5319 27.6089 46.7863V47.1682C27.6089 47.4226 27.8151 47.6288 28.0695 47.6288H35.9369C36.1914 47.6288 36.3976 47.4226 36.3976 47.1682V46.7863C36.3976 46.5319 36.1914 46.3257 35.9369 46.3257Z" fill="white"/>
<path d="M35.1308 48.4287H28.8756C28.6547 48.4287 28.4756 48.6078 28.4756 48.8287V49.1682C28.4756 49.3891 28.6547 49.5682 28.8756 49.5682H35.1308C35.3517 49.5682 35.5308 49.3891 35.5308 49.1682V48.8287C35.5308 48.6078 35.3517 48.4287 35.1308 48.4287Z" fill="white"/>
<path d="M34.2095 50.4048H29.7909C29.6068 50.4048 29.4575 50.554 29.4575 50.7381V51.0109C29.4575 51.195 29.6068 51.3443 29.7909 51.3443H34.2095C34.3936 51.3443 34.5429 51.195 34.5429 51.0109V50.7381C34.5429 50.554 34.3936 50.4048 34.2095 50.4048Z" fill="white"/>
<path d="M27.7572 43.1358C27.7557 41.7559 27.4537 40.3929 26.8723 39.1414C26.1207 37.5655 25.3388 37.1594 24.0417 35.1108C23.3021 34.0757 22.7219 32.9357 22.3203 31.7286C21.2354 27.9707 23.2235 24.4916 23.5993 23.8491C24.4789 22.289 25.7733 21.003 27.339 20.1336C28.7311 19.3812 30.2903 18.9914 31.8728 19.0001C33.4115 19.0208 34.9234 19.405 36.2853 20.1215C37.4843 20.7593 38.5424 21.6323 39.3963 22.6883C40.2503 23.7443 40.8826 24.9616 41.2555 26.2675C41.7582 27.9179 41.8001 29.6743 41.3767 31.3468C40.9626 32.7637 40.2748 34.0857 39.3523 35.238C38.8916 35.8442 38.7098 35.9654 38.2491 36.6442C37.6176 37.5834 37.1141 38.6026 36.752 39.6748C36.3749 40.7908 36.1526 41.9533 36.0914 43.1297L27.7572 43.1358Z" fill="white"/>
<path fill-rule="evenodd" clip-rule="evenodd" d="M32.3789 9.41309C32.9312 9.41309 33.3789 9.8608 33.3789 10.4131V16.0682C33.3789 16.6205 32.9312 17.0682 32.3789 17.0682C31.8266 17.0682 31.3789 16.6205 31.3789 16.0682V10.4131C31.3789 9.8608 31.8266 9.41309 32.3789 9.41309Z" fill="white"/>
<path fill-rule="evenodd" clip-rule="evenodd" d="M43.5015 27.4209C43.5015 26.8686 43.9492 26.4209 44.5015 26.4209H50.4596C51.0119 26.4209 51.4596 26.8686 51.4596 27.4209C51.4596 27.9732 51.0119 28.4209 50.4596 28.4209H44.5015C43.9492 28.4209 43.5015 27.9732 43.5015 27.4209Z" fill="white"/>
<path fill-rule="evenodd" clip-rule="evenodd" d="M12.8926 27.4209C12.8926 26.8686 13.3403 26.4209 13.8926 26.4209H19.8507C20.403 26.4209 20.8507 26.8686 20.8507 27.4209C20.8507 27.9732 20.403 28.4209 19.8507 28.4209H13.8926C13.3403 28.4209 12.8926 27.9732 12.8926 27.4209Z" fill="white"/>
<path fill-rule="evenodd" clip-rule="evenodd" d="M47.4387 14.5605C47.8294 14.9507 47.8299 15.5839 47.4396 15.9747L42.9786 20.4418C42.5883 20.8326 41.9552 20.833 41.5644 20.4427C41.1736 20.0525 41.1732 19.4193 41.5634 19.0285L46.0244 14.5614C46.4147 14.1707 47.0479 14.1702 47.4387 14.5605Z" fill="white"/>
<path fill-rule="evenodd" clip-rule="evenodd" d="M17.6464 14.4638C18.0369 14.0733 18.6701 14.0733 19.0606 14.4638L23.7156 19.1188C24.1061 19.5093 24.1061 20.1425 23.7156 20.533C23.3251 20.9235 22.6919 20.9235 22.3014 20.533L17.6464 15.878C17.2559 15.4875 17.2559 14.8543 17.6464 14.4638Z" fill="white"/>
<defs>
<linearGradient id="paint0_linear_385_222" x1="32.0093" y1="2.46679" x2="32.0093" y2="68.3033" gradientUnits="userSpaceOnUse">
<stop offset="0.01" stop-color="#FFEE00"/>
<stop offset="1" stop-color="#F3A817"/>
</linearGradient>
</defs>
</svg>
